<svg width="18" height="24" viewBox="0 0 18 24" fill="none" xmlns="http://www.w3.org/2000/svg">
<path d="M6.43934 0.43934C6.72064 0.158035 7.10217 0 7.5 0H10.5C10.8978 0 11.2794 0.158035 11.5607 0.43934C11.842 0.720644 12 1.10218 12 1.5C12 1.89782 11.842 2.27936 11.5607 2.56066C11.2794 2.84196 10.8978 3 10.5 3H7.5C7.10217 3 6.72064 2.84196 6.43934 2.56066C6.15804 2.27936 6 1.89782 6 1.5C6 1.10218 6.15804 0.720644 6.43934 0.43934Z" fill="#191D23"/>
<path fill-rule="evenodd" clip-rule="evenodd" d="M0.87868 2.37868C0.31607 2.94129 0 3.70435 0 4.5V21C0 21.7957 0.31607 22.5587 0.87868 23.1213C1.44129 23.6839 2.20435 24 3 24H15C15.7957 24 16.5587 23.6839 17.1213 23.1213C17.6839 22.5587 18 21.7957 18 21V4.5C18 3.70435 17.6839 2.94129 17.1213 2.37868C16.5587 1.81607 15.7957 1.5 15 1.5C15 2.69347 14.5259 3.83807 13.682 4.68198C12.8381 5.52589 11.6935 6 10.5 6H7.5C6.30653 6 5.16193 5.52589 4.31802 4.68198C3.47411 3.83807 3 2.69347 3 1.5C2.20435 1.5 1.44129 1.81607 0.87868 2.37868ZM14.9815 12.0054C14.9849 12.3987 14.8337 12.7776 14.5605 13.0605L8.5605 19.0605C8.27921 19.3417 7.89775 19.4997 7.5 19.4997C7.10225 19.4997 6.72079 19.3417 6.4395 19.0605L3.4395 16.0605C3.16626 15.7776 3.01507 15.3987 3.01849 15.0054C3.02191 14.6121 3.17966 14.2359 3.45777 13.9578C3.73588 13.6797 4.1121 13.5219 4.5054 13.5185C4.89869 13.5151 5.2776 13.6663 5.5605 13.9395L7.5 15.879L12.4395 10.9395C12.7224 10.6663 13.1013 10.5151 13.4946 10.5185C13.8879 10.5219 14.2641 10.6797 14.5422 10.9578C14.8203 11.2359 14.9781 11.6121 14.9815 12.0054Z" fill="#191D23"/>
</svg>
