<svg width="18" height="20" viewBox="0 0 18 20" fill="none" xmlns="http://www.w3.org/2000/svg">
<path d="M10.2857 18.7506C10.2858 18.9636 10.3419 19.173 10.4487 19.359C10.5554 19.545 10.7093 19.7014 10.8956 19.8134C11.082 19.9254 11.2947 19.9891 11.5136 19.9987C11.7324 20.0083 11.9502 19.9634 12.1461 19.8682L17.289 17.368C17.5025 17.2642 17.6821 17.1048 17.8077 16.9074C17.9333 16.71 17.9999 16.4825 18 16.2504V9.04494C17.9999 8.83193 17.9438 8.62249 17.837 8.43649C17.7303 8.25048 17.5764 8.09408 17.3901 7.98212C17.2037 7.87017 16.991 7.80637 16.7721 7.79679C16.5533 7.7872 16.3355 7.83215 16.1396 7.92736L10.9967 10.4275C10.7832 10.5313 10.6036 10.6908 10.478 10.8882C10.3524 11.0855 10.2858 11.313 10.2857 11.5451V18.7506ZM15.6999 5.34469C15.9131 5.24076 16.0925 5.08118 16.2178 4.88381C16.3431 4.68645 16.4095 4.45907 16.4095 4.22711C16.4095 3.99516 16.3431 3.76778 16.2178 3.57041C16.0925 3.37305 15.9131 3.21347 15.6999 3.10954L9.57471 0.131841C9.39626 0.0451373 9.1995 0 9 0C8.8005 0 8.60374 0.0451373 8.42529 0.131841L2.30014 3.10954C2.08687 3.21347 1.90754 3.37305 1.78221 3.57041C1.65689 3.76778 1.59051 3.99516 1.59051 4.22711C1.59051 4.45907 1.65689 4.68645 1.78221 4.88381C1.90754 5.08118 2.08687 5.24076 2.30014 5.34469L8.42529 8.32239C8.60374 8.40909 8.8005 8.45423 9 8.45423C9.1995 8.45423 9.39626 8.40909 9.57471 8.32239L15.6999 5.34469ZM1.86043 7.92736C1.66446 7.83215 1.44672 7.7872 1.22786 7.79679C1.00901 7.80637 0.796308 7.87017 0.609936 7.98212C0.423563 8.09408 0.269703 8.25048 0.162957 8.43649C0.05621 8.62249 0.000116961 8.83193 0 9.04494V16.2504C0.000127477 16.4825 0.0667069 16.71 0.192282 16.9074C0.317856 17.1048 0.497467 17.2642 0.711 17.368L5.85386 19.8682C6.04983 19.9634 6.26757 20.0083 6.48642 19.9987C6.70527 19.9891 6.91798 19.9254 7.10435 19.8134C7.29072 19.7014 7.44458 19.545 7.55133 19.359C7.65808 19.173 7.71417 18.9636 7.71429 18.7506V11.5451C7.71416 11.313 7.64758 11.0855 7.522 10.8882C7.39643 10.6908 7.21682 10.5313 7.00328 10.4275L1.86043 7.92736Z" fill="#191D23"/>
</svg>
