<svg width="18" height="24" viewBox="0 0 18 24" fill="none" xmlns="http://www.w3.org/2000/svg">
<path fill-rule="evenodd" clip-rule="evenodd" d="M3 0C2.20435 0 1.44129 0.31607 0.87868 0.87868C0.31607 1.44129 0 2.20435 0 3V21C0 21.7956 0.31607 22.5587 0.87868 23.1213C1.44129 23.6839 2.20435 24 3 24H15C15.7956 24 16.5587 23.6839 17.1213 23.1213C17.6839 22.5587 18 21.7956 18 21V8.121C17.9998 7.32542 17.6836 6.56248 17.121 6L12 0.879C11.4375 0.316352 10.6746 0.000169912 9.879 0H3ZM6 15C6 14.6022 5.84196 14.2206 5.56066 13.9393C5.27936 13.658 4.89782 13.5 4.5 13.5C4.10218 13.5 3.72064 13.658 3.43934 13.9393C3.15804 14.2206 3 14.6022 3 15V19.5C3 19.8978 3.15804 20.2794 3.43934 20.5607C3.72064 20.842 4.10218 21 4.5 21C4.89782 21 5.27936 20.842 5.56066 20.5607C5.84196 20.2794 6 19.8978 6 19.5V15ZM9 10.5C9.39782 10.5 9.77936 10.658 10.0607 10.9393C10.342 11.2206 10.5 11.6022 10.5 12V19.5C10.5 19.8978 10.342 20.2794 10.0607 20.5607C9.77936 20.842 9.39782 21 9 21C8.60218 21 8.22064 20.842 7.93934 20.5607C7.65804 20.2794 7.5 19.8978 7.5 19.5V12C7.5 11.6022 7.65804 11.2206 7.93934 10.9393C8.22064 10.658 8.60218 10.5 9 10.5ZM15 9C15 8.60218 14.842 8.22064 14.5607 7.93934C14.2794 7.65804 13.8978 7.5 13.5 7.5C13.1022 7.5 12.7206 7.65804 12.4393 7.93934C12.158 8.22064 12 8.60218 12 9V19.5C12 19.8978 12.158 20.2794 12.4393 20.5607C12.7206 20.842 13.1022 21 13.5 21C13.8978 21 14.2794 20.842 14.5607 20.5607C14.842 20.2794 15 19.8978 15 19.5V9Z" fill="#191D23"/>
</svg>
