<svg width="24" height="24" viewBox="0 0 24 24" fill="none" xmlns="http://www.w3.org/2000/svg">
<path d="M18.6989 19.7554L15.3103 16.3611C14.0363 17.3671 12.4261 17.8484 10.809 17.7065C9.19187 17.5646 7.69014 16.8102 6.61083 15.5977C5.53151 14.3852 4.95621 12.8061 5.0026 11.1835C5.049 9.56086 5.71356 8.01723 6.86039 6.86837C8.00723 5.7195 9.54967 5.0522 11.1722 5.00294C12.7948 4.95367 14.3749 5.52616 15.5893 6.60333C16.8037 7.6805 17.5608 9.18095 17.7056 10.7978C17.8503 12.4146 17.3718 14.0257 16.3681 15.3015L19.7567 18.6957C19.8319 18.7638 19.8926 18.8464 19.935 18.9386C19.9773 19.0308 20.0005 19.1306 20.0031 19.232C20.0057 19.3335 19.9876 19.4343 19.9501 19.5286C19.9125 19.6228 19.856 19.7084 19.7844 19.7802C19.7127 19.852 19.6272 19.9085 19.5331 19.9462C19.4389 19.984 19.3381 20.0022 19.2367 19.9998C19.1353 19.9974 19.0354 19.9744 18.9431 19.9322C18.8508 19.8901 18.7681 19.8296 18.6999 19.7545L18.6989 19.7554ZM6.5129 11.3605C6.51142 12.3169 6.79212 13.2524 7.31987 14.05C7.84762 14.8476 8.59896 15.4718 9.47979 15.8443C10.3606 16.2169 11.3318 16.3213 12.2717 16.1445C13.2116 15.9676 14.0784 15.5174 14.7636 14.8503C14.7776 14.8334 14.7936 14.8166 14.8095 14.7997C14.8254 14.7829 14.8423 14.7679 14.86 14.7538C15.4186 14.1829 15.828 13.4833 16.0523 12.7168C16.2766 11.9502 16.3089 11.1403 16.1463 10.3583C15.9836 9.57637 15.631 8.84646 15.1195 8.23297C14.6081 7.61948 13.9537 7.14126 13.2138 6.84047C12.4739 6.53968 11.6713 6.42557 10.8768 6.50822C10.0824 6.59086 9.32067 6.86772 8.65853 7.31436C7.9964 7.761 7.45431 8.36371 7.08013 9.06934C6.70596 9.77496 6.51114 10.5618 6.5129 11.3605Z" fill="#7A869A"/>
</svg>
