<svg width="22" height="22" viewBox="0 0 22 22" fill="none" xmlns="http://www.w3.org/2000/svg">
<path fill-rule="evenodd" clip-rule="evenodd" d="M22 11C22 13.9174 20.8411 16.7153 18.7782 18.7782C16.7153 20.8411 13.9174 22 11 22C8.08262 22 5.28473 20.8411 3.22183 18.7782C1.15893 16.7153 0 13.9174 0 11C0 8.08262 1.15893 5.28473 3.22183 3.22183C5.28473 1.15893 8.08262 0 11 0C13.9174 0 16.7153 1.15893 18.7782 3.22183C20.8411 5.28473 22 8.08262 22 11ZM13.75 6.875C13.75 7.60435 13.4603 8.30382 12.9445 8.81954C12.4288 9.33527 11.7293 9.625 11 9.625C10.2707 9.625 9.57118 9.33527 9.05546 8.81954C8.53973 8.30382 8.25 7.60435 8.25 6.875C8.25 6.14565 8.53973 5.44618 9.05546 4.93046C9.57118 4.41473 10.2707 4.125 11 4.125C11.7293 4.125 12.4288 4.41473 12.9445 4.93046C13.4603 5.44618 13.75 6.14565 13.75 6.875ZM11 12.375C9.68358 12.3747 8.39475 12.7524 7.2867 13.4632C6.17864 14.1739 5.29794 15.1879 4.74925 16.3845C5.52293 17.2846 6.48212 18.0067 7.56105 18.5013C8.63997 18.9959 9.81311 19.2513 11 19.25C12.1869 19.2513 13.36 18.9959 14.439 18.5013C15.5179 18.0067 16.4771 17.2846 17.2507 16.3845C16.7021 15.1879 15.8214 14.1739 14.7133 13.4632C13.6052 12.7524 12.3164 12.3747 11 12.375Z" fill="#191D23"/>
</svg>
